<svg width="61" height="65" viewBox="0 0 61 65" fill="none" xmlns="http://www.w3.org/2000/svg">
<g filter="url(#filter0_d_0_144)">
<path fill-rule="evenodd" clip-rule="evenodd" d="M24.125 22.8333C24.125 21.6597 25.0764 20.7083 26.25 20.7083H34.75C35.9236 20.7083 36.875 21.6597 36.875 22.8333V35.5833C36.875 35.8613 36.7125 36.1135 36.4594 36.2284C36.2063 36.3432 35.9094 36.2994 35.7002 36.1164L30.5 31.5662L25.2998 36.1164C25.0906 36.2994 24.7937 36.3432 24.5406 36.2284C24.2875 36.1135 24.125 35.8613 24.125 35.5833V22.8333ZM26.25 22.125C25.8588 22.125 25.5417 22.4421 25.5417 22.8333V34.0223L30.0336 30.0919C30.3006 29.8583 30.6994 29.8583 30.9664 30.0919L35.4583 34.0223V22.8333C35.4583 22.4421 35.1412 22.125 34.75 22.125H26.25Z" fill="white"/>
</g>
<defs>
<filter id="filter0_d_0_144" x="-2" y="0" width="65" height="65" filterUnits="userSpaceOnUse" color-interpolation-filters="sRGB">
<feFlood flood-opacity="0" result="BackgroundImageFix"/>
<feColorMatrix in="SourceAlpha" type="matrix" values="0 0 0 0 0 0 0 0 0 0 0 0 0 0 0 0 0 0 127 0" result="hardAlpha"/>
<feOffset dy="4"/>
<feGaussianBlur stdDeviation="12"/>
<feComposite in2="hardAlpha" operator="out"/>
<feColorMatrix type="matrix" values="0 0 0 0 0 0 0 0 0 0 0 0 0 0 0 0 0 0 0.26 0"/>
<feBlend mode="normal" in2="BackgroundImageFix" result="effect1_dropShadow_0_144"/>
<feBlend mode="normal" in="SourceGraphic" in2="effect1_dropShadow_0_144" result="shape"/>
</filter>
</defs>
</svg>
