<svg width="61" height="61" viewBox="0 0 61 61" fill="none" xmlns="http://www.w3.org/2000/svg">
<g filter="url(#filter0_d_0_139)">
<path d="M26.0425 21.0408C25.7659 20.7642 25.3174 20.7642 25.0408 21.0408C24.7642 21.3174 24.7642 21.7659 25.0408 22.0425L29.4983 26.5L25.0408 30.9576C24.7642 31.2342 24.7642 31.6827 25.0408 31.9593C25.3174 32.2359 25.7659 32.2359 26.0425 31.9593L30.5 27.5018L34.9574 31.9592C35.2341 32.2358 35.6826 32.2358 35.9592 31.9592C36.2358 31.6826 36.2358 31.2341 35.9592 30.9575L31.5018 26.5L35.9592 22.0426C36.2358 21.766 36.2358 21.3175 35.9592 21.0409C35.6826 20.7643 35.2341 20.7643 34.9574 21.0409L30.5 25.4983L26.0425 21.0408Z" fill="white"/>
</g>
<defs>
<filter id="filter0_d_0_139" x="-2" y="-2" width="65" height="65" filterUnits="userSpaceOnUse" color-interpolation-filters="sRGB">
<feFlood flood-opacity="0" result="BackgroundImageFix"/>
<feColorMatrix in="SourceAlpha" type="matrix" values="0 0 0 0 0 0 0 0 0 0 0 0 0 0 0 0 0 0 127 0" result="hardAlpha"/>
<feOffset dy="4"/>
<feGaussianBlur stdDeviation="12"/>
<feComposite in2="hardAlpha" operator="out"/>
<feColorMatrix type="matrix" values="0 0 0 0 0 0 0 0 0 0 0 0 0 0 0 0 0 0 0.26 0"/>
<feBlend mode="normal" in2="BackgroundImageFix" result="effect1_dropShadow_0_139"/>
<feBlend mode="normal" in="SourceGraphic" in2="effect1_dropShadow_0_139" result="shape"/>
</filter>
</defs>
</svg>
