<svg width="16" height="16" viewBox="0 0 16 16" fill="none" xmlns="http://www.w3.org/2000/svg">
<path d="M9.33335 2.66668C9.33335 3.40306 8.7364 4.00001 8.00002 4.00001C7.26364 4.00001 6.66669 3.40306 6.66669 2.66668C6.66669 1.9303 7.26364 1.33334 8.00002 1.33334C8.7364 1.33334 9.33335 1.9303 9.33335 2.66668Z" fill="#777E93"/>
<path d="M9.33335 8.00001C9.33335 8.73639 8.7364 9.33334 8.00002 9.33334C7.26364 9.33334 6.66669 8.73639 6.66669 8.00001C6.66669 7.26363 7.26364 6.66668 8.00002 6.66668C8.7364 6.66668 9.33335 7.26363 9.33335 8.00001Z" fill="#777E93"/>
<path d="M8.00002 14.6667C8.7364 14.6667 9.33335 14.0697 9.33335 13.3333C9.33335 12.597 8.7364 12 8.00002 12C7.26364 12 6.66669 12.597 6.66669 13.3333C6.66669 14.0697 7.26364 14.6667 8.00002 14.6667Z" fill="#777E93"/>
</svg>
